<?xml version="1.0" standalone="no"?>
<!DOCTYPE svg PUBLIC "-//W3C//DTD SVG 20010904//EN"
 "http://www.w3.org/TR/2001/REC-SVG-20010904/DTD/svg10.dtd">
<svg version="1.0" xmlns="http://www.w3.org/2000/svg"
 width="512.000000pt" height="512.000000pt" viewBox="0 0 512.000000 512.000000"
 preserveAspectRatio="xMidYMid meet">
<metadata>
Created by potrace 1.16, written by Peter Selinger 2001-2019
</metadata>
<g transform="translate(0.000000,512.000000) scale(0.100000,-0.100000)"
fill="#000000" stroke="none">
<path d="M2290 4379 c-465 -47 -936 -239 -1320 -538 -590 -459 -970 -1216
-970 -1932 l0 -130 39 -42 40 -42 418 -3 c393 -2 420 -1 453 16 59 32 73 69
82 213 37 631 459 1176 1058 1367 182 58 246 67 470 67 224 0 288 -9 470 -67
343 -110 650 -351 838 -660 l41 -66 -127 -52 c-70 -29 -157 -65 -193 -80 l-66
-28 -41 62 c-92 140 -258 288 -404 362 -169 85 -277 113 -464 121 -227 9 -378
-22 -564 -118 -118 -61 -206 -126 -297 -222 -128 -135 -218 -295 -270 -483
-26 -92 -28 -112 -27 -284 0 -169 2 -194 27 -285 106 -393 403 -683 817 -798
63 -17 103 -21 260 -21 159 0 196 3 263 22 209 57 370 148 512 287 150 147
251 319 302 513 34 130 43 348 19 471 -8 47 -15 85 -13 86 1 1 87 37 191 79
138 57 191 74 196 65 18 -28 51 -223 58 -340 9 -142 23 -179 82 -211 33 -17
60 -18 453 -16 l418 3 40 42 39 42 0 130 c0 235 -41 471 -126 731 -177 537
-534 1003 -1014 1322 -343 228 -762 378 -1164 417 -126 13 -402 12 -526 0z
m645 -328 c230 -40 450 -114 653 -218 113 -57 301 -178 366 -235 l38 -33 -127
-153 c-70 -83 -130 -152 -134 -152 -5 0 -26 14 -47 31 -108 88 -300 196 -459
259 -104 41 -281 87 -405 105 -133 19 -385 19 -517 0 -314 -45 -618 -172 -867
-363 l-58 -45 -144 144 -145 144 38 33 c64 55 203 151 302 210 249 146 575
255 876 291 136 16 492 6 630 -18z m1415 -854 c249 -316 406 -712 455 -1139
l6 -58 -208 0 -209 0 -12 98 c-10 82 -36 203 -58 275 -4 13 5 22 38 37 73 32
108 82 108 152 0 114 -119 181 -234 133 l-37 -16 -17 31 c-38 70 -131 208
-176 263 -28 34 -44 63 -39 70 4 7 63 79 132 161 l124 149 29 -34 c16 -19 60
-74 98 -122z m-3248 -238 c-199 -255 -341 -597 -368 -888 l-7 -71 -209 0 -209
0 6 58 c22 190 69 394 130 558 79 210 225 465 360 628 l57 68 145 -144 145
-145 -50 -64z m1643 -338 c282 -68 496 -273 587 -561 20 -64 23 -96 23 -220 0
-124 -3 -156 -23 -220 -71 -225 -228 -408 -432 -504 -122 -57 -187 -71 -340
-71 -160 0 -222 14 -355 79 -374 185 -543 625 -389 1016 72 183 237 354 420
435 147 65 351 84 509 46z"/>
<path d="M2285 2230 c-80 -18 -120 -76 -113 -164 4 -50 10 -62 42 -94 35 -36
39 -37 107 -37 70 0 71 0 110 42 36 39 39 47 39 99 0 35 -6 67 -17 86 -32 53
-105 83 -168 68z"/>
<path d="M2765 2230 c-128 -29 -162 -196 -57 -275 21 -15 43 -20 94 -20 65 0
69 2 104 37 32 31 38 45 42 91 3 38 -1 65 -13 90 -28 59 -102 93 -170 77z"/>
<path d="M2195 1713 c-62 -16 -105 -76 -105 -148 0 -61 20 -97 81 -145 181
-143 452 -171 665 -70 78 38 159 100 179 140 19 37 19 113 0 150 -30 59 -109
91 -178 72 -20 -6 -53 -24 -75 -41 -116 -94 -288 -94 -404 0 -54 43 -105 56
-163 42z"/>
</g>
</svg>
