<?xml version="1.0" standalone="no"?>
<!DOCTYPE svg PUBLIC "-//W3C//DTD SVG 20010904//EN"
 "http://www.w3.org/TR/2001/REC-SVG-20010904/DTD/svg10.dtd">
<svg version="1.0" xmlns="http://www.w3.org/2000/svg"
 width="512.000000pt" height="512.000000pt" viewBox="0 0 512.000000 512.000000"
 preserveAspectRatio="xMidYMid meet">
<metadata>
Created by potrace 1.16, written by Peter Selinger 2001-2019
</metadata>
<g transform="translate(0.000000,512.000000) scale(0.100000,-0.100000)"
fill="#000000" stroke="none">
<path d="M2356 5104 c-430 -96 -739 -458 -763 -895 l-6 -106 -91 -64 c-117
-82 -333 -298 -415 -415 l-64 -91 -106 -6 c-359 -20 -676 -235 -827 -561 -66
-144 -79 -211 -79 -406 0 -153 3 -185 23 -254 48 -166 121 -293 241 -419 170
-178 393 -280 642 -294 l106 -6 64 -91 c82 -117 298 -333 415 -415 l91 -64 6
-106 c14 -249 116 -472 294 -642 126 -120 253 -193 419 -241 116 -34 392 -34
508 0 166 48 293 121 419 241 178 170 280 393 294 642 l6 106 91 64 c117 82
333 298 415 415 l64 91 106 6 c359 20 676 235 827 561 66 144 79 211 79 406 0
153 -3 185 -23 254 -48 166 -121 293 -241 419 -170 178 -393 280 -642 294
l-106 6 -64 91 c-36 51 -121 149 -194 221 -72 73 -170 158 -221 194 l-91 64
-6 106 c-14 249 -116 472 -294 642 -125 118 -252 192 -414 240 -99 29 -359 36
-463 13z m353 -155 c287 -45 547 -286 633 -586 32 -111 32 -305 0 -416 -92
-323 -373 -563 -696 -596 -158 -16 -332 18 -465 90 -30 16 -68 29 -85 29 -59
0 -95 -66 -65 -122 14 -26 172 -101 272 -128 159 -44 370 -42 530 5 168 48
304 132 428 263 99 104 167 213 211 337 17 50 33 92 35 94 4 6 107 -76 185
-148 67 -61 228 -246 228 -261 0 -3 -26 -14 -57 -24 -308 -97 -548 -342 -638
-652 -33 -115 -33 -156 1 -183 51 -40 116 -17 130 46 39 181 106 309 226 431
322 326 841 320 1159 -15 146 -153 219 -337 219 -553 0 -315 -169 -584 -457
-729 -112 -56 -202 -75 -348 -75 -185 0 -323 43 -468 148 -158 112 -291 310
-322 479 -17 89 -138 105 -159 21 -17 -65 80 -303 172 -424 54 -72 158 -172
225 -218 64 -45 194 -108 260 -127 31 -9 57 -20 57 -24 0 -10 -103 -136 -164
-200 -55 -58 -235 -211 -247 -211 -5 0 -13 19 -20 43 -48 183 -199 394 -364
512 -116 83 -291 155 -375 155 -30 0 -43 -6 -59 -26 -49 -62 -14 -109 111
-149 129 -40 228 -102 333 -209 79 -79 98 -105 143 -196 72 -147 86 -207 86
-365 0 -146 -14 -212 -70 -333 -146 -317 -470 -503 -817 -470 -326 31 -606
270 -699 595 -32 112 -32 305 0 417 85 296 332 527 627 586 76 15 95 32 95 83
0 83 -59 97 -214 52 -171 -49 -304 -132 -432 -268 -94 -100 -163 -210 -206
-332 -17 -50 -33 -92 -35 -94 -5 -7 -116 83 -197 159 -71 67 -216 236 -216
251 0 3 19 11 43 18 144 43 284 126 400 240 211 205 313 486 286 785 -22 237
-122 442 -297 607 -104 99 -213 167 -337 211 -50 17 -92 33 -94 35 -7 5 83
116 159 197 66 69 235 216 250 216 3 0 19 -39 35 -87 29 -86 105 -226 147
-270 31 -33 90 -32 117 3 29 37 26 74 -8 122 -46 63 -99 174 -123 259 -32 111
-32 305 0 416 92 323 376 565 697 595 87 8 135 6 234 -9z m-1531 -1609 c317
-89 558 -373 591 -694 40 -395 -209 -758 -596 -868 -111 -32 -305 -32 -416 0
-266 76 -478 279 -564 540 -26 81 -28 98 -28 247 0 153 2 164 31 247 104 290
341 493 642 548 76 14 258 4 340 -20z"/>
<path d="M2147 4519 c-92 -22 -167 -83 -167 -136 0 -41 38 -83 73 -83 13 0 44
13 68 30 24 16 58 32 75 36 34 6 89 -13 131 -46 32 -25 63 -25 96 0 55 44 40
107 -40 158 -73 47 -152 61 -236 41z"/>
<path d="M2825 4519 c-54 -13 -133 -66 -151 -100 -18 -36 -10 -73 23 -99 33
-25 64 -25 96 0 42 33 97 52 131 46 17 -4 51 -20 75 -36 24 -17 55 -30 68 -30
35 0 73 42 73 83 0 89 -184 169 -315 136z"/>
<path d="M2161 3854 c-35 -45 -28 -81 27 -131 87 -81 249 -143 372 -143 123 0
285 62 373 143 54 50 61 86 26 131 -33 42 -75 36 -153 -23 -81 -62 -149 -85
-246 -85 -97 0 -165 23 -246 85 -78 59 -120 65 -153 23z"/>
<path d="M3677 2938 c-29 -23 -39 -65 -22 -103 12 -30 12 -39 0 -62 -39 -74
38 -139 120 -101 19 9 28 9 37 0 7 -7 29 -12 49 -12 29 0 43 6 58 26 25 31 26
55 7 92 -12 24 -12 30 0 47 51 69 -42 160 -112 110 -19 -12 -24 -12 -40 0 -24
18 -75 19 -97 3z"/>
<path d="M4395 2925 c-28 -27 -33 -71 -11 -100 12 -17 12 -23 0 -47 -19 -37
-18 -61 7 -92 15 -20 29 -26 58 -26 20 0 42 5 49 12 9 9 18 9 37 0 88 -40 159
30 115 114 -11 19 -11 27 -2 36 21 21 14 85 -10 108 -25 23 -74 26 -102 5 -16
-12 -21 -12 -40 0 -31 22 -74 18 -101 -10z"/>
<path d="M3822 2237 c-27 -29 -28 -77 -3 -108 l19 -24 318 -3 c339 -3 362 0
383 44 16 36 14 58 -10 88 l-20 26 -333 0 -333 0 -21 -23z"/>
<path d="M2140 1360 c-18 -18 -20 -33 -20 -149 0 -144 8 -166 67 -177 27 -5
37 -1 63 25 l32 31 -4 124 c-2 105 -6 127 -22 145 -26 28 -88 29 -116 1z"/>
<path d="M2864 1359 c-16 -18 -20 -40 -22 -145 l-4 -124 32 -31 c26 -26 36
-30 63 -25 59 11 67 33 67 177 0 116 -2 131 -20 149 -28 28 -90 27 -116 -1z"/>
<path d="M2164 856 c-17 -8 -41 -27 -53 -42 -33 -42 -27 -135 16 -227 95 -200
318 -312 535 -266 189 40 356 222 366 398 3 57 1 70 -19 95 -43 54 -56 56
-451 56 -281 -1 -370 -4 -394 -14z m696 -171 c-47 -123 -175 -215 -300 -215
-125 0 -253 92 -300 215 l-10 25 310 0 310 0 -10 -25z"/>
<path d="M413 2775 c-43 -30 -38 -96 11 -138 107 -91 300 -90 397 3 48 45 52
87 14 125 -32 33 -70 31 -124 -5 -61 -42 -122 -42 -179 0 -46 33 -86 38 -119
15z"/>
<path d="M1095 2765 c-77 -76 33 -185 194 -193 86 -5 129 6 193 48 51 34 73
73 62 114 -15 61 -81 73 -146 26 -57 -42 -118 -42 -179 0 -54 36 -92 38 -124
5z"/>
<path d="M839 2340 c-98 -25 -187 -73 -257 -138 -43 -40 -45 -100 -6 -131 39
-30 66 -26 124 20 29 23 77 53 108 67 50 24 70 27 157 27 87 0 107 -3 157 -27
31 -14 79 -44 108 -67 58 -46 85 -50 122 -21 58 45 38 108 -55 174 -101 72
-181 98 -312 102 -60 2 -126 -1 -146 -6z"/>
</g>
</svg>
